<svg width="16" height="16" viewBox="0 0 16 16" fill="none" xmlns="http://www.w3.org/2000/svg">
<path d="M8.00002 1.33301C6.58553 1.33301 5.22898 1.89491 4.22878 2.89511C3.22859 3.8953 2.66669 5.25185 2.66669 6.66634C2.66669 10.2663 7.36669 14.333 7.56669 14.5063C7.68744 14.6096 7.84112 14.6664 8.00002 14.6664C8.15892 14.6664 8.3126 14.6096 8.43335 14.5063C8.66669 14.333 13.3334 10.2663 13.3334 6.66634C13.3334 5.25185 12.7715 3.8953 11.7713 2.89511C10.7711 1.89491 9.41451 1.33301 8.00002 1.33301ZM8.00002 13.0997C6.58002 11.7663 4.00002 8.89301 4.00002 6.66634C4.00002 5.60547 4.42145 4.58806 5.17159 3.83791C5.92174 3.08777 6.93915 2.66634 8.00002 2.66634C9.06089 2.66634 10.0783 3.08777 10.8284 3.83791C11.5786 4.58806 12 5.60547 12 6.66634C12 8.89301 9.42002 11.773 8.00002 13.0997ZM8.00002 3.99967C7.4726 3.99967 6.95703 4.15607 6.5185 4.44909C6.07997 4.74211 5.73818 5.15858 5.53634 5.64585C5.33451 6.13312 5.2817 6.6693 5.38459 7.18658C5.48749 7.70386 5.74146 8.17902 6.1144 8.55196C6.48734 8.9249 6.9625 9.17887 7.47978 9.28177C7.99706 9.38466 8.53324 9.33185 9.02051 9.13002C9.50778 8.92819 9.92426 8.58639 10.2173 8.14786C10.5103 7.70933 10.6667 7.19376 10.6667 6.66634C10.6667 5.9591 10.3857 5.28082 9.88564 4.78072C9.38554 4.28063 8.70726 3.99967 8.00002 3.99967ZM8.00002 7.99967C7.73631 7.99967 7.47853 7.92148 7.25926 7.77497C7.03999 7.62846 6.8691 7.42022 6.76818 7.17659C6.66726 6.93295 6.64086 6.66486 6.69231 6.40622C6.74375 6.14758 6.87074 5.91 7.05721 5.72353C7.24368 5.53706 7.48126 5.41007 7.7399 5.35863C7.99854 5.30718 8.26663 5.33358 8.51026 5.4345C8.7539 5.53542 8.96214 5.70632 9.10865 5.92558C9.25516 6.14485 9.33335 6.40263 9.33335 6.66634C9.33335 7.01996 9.19288 7.3591 8.94283 7.60915C8.69278 7.8592 8.35364 7.99967 8.00002 7.99967Z" fill="#848484"/>
</svg>
